o Cross
v 0.12121212121212121212121212121212 1.000000 0.000000
v -0.12121212121212121212121212121212 1.000000 0.000000
v 0.12121212121212121212121212121212 -1.000000 0.000000
v -0.12121212121212121212121212121212 -1.000000 0.000000
v -1.000000 0.12121212121212121212121212121212 0.000000
v -1.000000 -0.12121212121212121212121212121212 0.000000
v 1.000000 0.12121212121212121212121212121212 0.000000
v 1.000000 -0.12121212121212121212121212121212 0.000000
v -0.12121212121212121212121212121212 0.12121212121212121212121212121212 0.000000
v 0.12121212121212121212121212121212 0.12121212121212121212121212121212 0.000000
v -0.12121212121212121212121212121212 -0.12121212121212121212121212121212 0.000000
v 0.12121212121212121212121212121212 -0.12121212121212121212121212121212 0.000000

vt 0.46153846153846153846153846153846 1.000000
vt 0.53846153846153846153846153846154 1.000000
vt 0.46153846153846153846153846153846 0.000000
vt 0.53846153846153846153846153846154 0.000000
vt 0.0000000 0.46153846153846153846153846153846
vt 0.0000000 0.53846153846153846153846153846154

vt 1.0000000 0.46153846153846153846153846153846
vt 1.0000000 0.53846153846153846153846153846154

vt 0.53846153846153846153846153846154 0.53846153846153846153846153846154
vt 0.46153846153846153846153846153846 0.53846153846153846153846153846154
vt 0.53846153846153846153846153846154 0.46153846153846153846153846153846
vt 0.46153846153846153846153846153846 0.46153846153846153846153846153846
vn 0.0000 0.0000 1.0000
s off
f 1/2/1 2/1/1 9/10/1 10/9/1
f 4/3/1 3/4/1 12/11/1 11/12/1
f 5/6/1 6/5/1 11/12/1 9/10/1
f 8/7/1 7/8/1 10/9/1 12/11/1
f 10/9/1 9/10/1 11/12/1 12/11/1
