# Blender v2.92.0 OBJ File: 'laser.blend'
# www.blender.org
mtllib laser.mtl
o Cube
v -1.792020 1.000000 1.000000
v -1.792020 -1.000000 1.000000
v -1.792020 1.000000 -1.000000
v -1.792020 -1.000000 -1.000000
v 1.792021 -1.000000 1.000000
v 1.792021 -1.000000 -1.000000
v 1.792021 1.000000 1.000000
v 1.792021 1.000000 -1.000000
v 1.792021 -0.750000 0.750000
v 1.792021 -0.750000 -0.750000
v 1.792021 0.750000 0.750000
v 1.792021 0.750000 -0.750000
v 1.792021 1.000000 -1.000000
v 2.292021 -0.500000 0.500000
v 2.292021 -0.500000 -0.500000
v 2.292021 0.500000 0.500000
v 2.292021 0.500000 -0.500000
v 2.292021 -0.750000 0.750000
v 2.292021 -0.750000 -0.750000
v 2.292021 0.750000 0.750000
v 2.292021 0.750000 -0.750000
v 2.792021 -0.500000 0.500000
v 2.792021 -0.500000 -0.500000
v 2.792021 0.500000 0.500000
v 2.792021 0.500000 -0.500000
vt 0.000000 1.000000
vt 0.279015 0.500000
vt 0.279015 1.000000
vt 0.837044 0.779015
vt 0.558029 0.500000
vt 0.837044 0.500000
vt 0.279015 0.000000
vt 0.000000 0.500000
vt 0.000000 0.000000
vt 0.837044 0.000000
vt 0.558029 0.500000
vt 0.558029 0.000000
vt 0.279015 0.500000
vt 0.558029 0.000000
vt 0.558029 0.500000
vt 0.279015 0.779015
vt 0.279015 0.779015
vt 0.279015 0.779015
vt 0.906798 0.418522
vt 0.837044 0.209261
vt 0.906798 0.209261
vt 0.313892 0.534877
vt 0.558029 0.500000
vt 0.523153 0.534877
vt 0.313892 0.744138
vt 0.279015 0.500000
vt 0.558029 0.779015
vt 0.523153 0.744138
vt 0.279015 0.779015
vt 0.697537 0.918522
vt 0.627783 0.779015
vt 0.697537 0.779015
vt 0.837044 0.418522
vt 0.906798 0.627783
vt 0.837044 0.627783
vt 0.906798 0.209261
vt 0.837044 0.000000
vt 0.906798 0.000000
vt 0.906798 0.837044
vt 0.837044 0.837044
vt 0.453399 0.813892
vt 0.279015 0.779015
vt 0.488276 0.779015
vt 0.313892 0.953399
vt 0.313892 0.813892
vt 0.488276 0.988276
vt 0.453399 0.953399
vt 0.279015 0.988276
vt 0.488276 0.918522
vt 0.627783 0.779015
vt 0.627783 0.918522
vt 0.906798 0.000000
vt 0.976551 0.139507
vt 0.906798 0.139507
vt 0.837044 0.918522
vt 0.767290 0.779015
vt 0.837044 0.779015
vt 0.697537 0.779015
vt 0.767290 0.918522
vt 0.697537 0.918522
vt 0.000000 0.500000
vt 0.558029 0.779015
vt 0.279015 0.500000
vt 0.837044 0.500000
vt 0.279015 0.000000
vt 0.837044 0.418522
vt 0.627783 0.918522
vt 0.906798 0.418522
vt 0.837044 0.209261
vt 0.488276 0.779015
vt 0.976551 0.000000
vt 0.767290 0.918522
vn 0.0000 -1.0000 0.0000
vn -1.0000 0.0000 -0.0000
vn -0.0000 0.0000 -1.0000
vn 0.0000 1.0000 0.0000
vn 0.0000 0.0000 1.0000
vn 1.0000 0.0000 -0.0000
usemtl Material
s off
f 5/1/1 4/2/1 6/3/1
f 1/4/2 4/5/2 2/6/2
f 3/7/3 6/8/3 4/9/3
f 8/10/4 1/11/4 7/12/4
f 7/13/5 2/14/5 5/15/5
f 13/16/5 6/17/5 8/18/5
f 12/19/3 19/20/3 10/21/3
f 9/22/6 6/23/6 10/24/6
f 11/25/6 5/26/6 9/22/6
f 10/24/6 13/27/6 12/28/6
f 12/28/6 7/29/6 11/25/6
f 16/30/4 25/31/4 17/32/4
f 10/33/1 18/34/1 9/35/1
f 11/36/4 21/37/4 12/38/4
f 9/35/5 20/39/5 11/40/5
f 15/41/6 18/42/6 19/43/6
f 16/44/6 18/42/6 14/45/6
f 15/41/6 21/46/6 17/47/6
f 17/47/6 20/48/6 16/44/6
f 24/49/6 23/50/6 25/51/6
f 14/52/5 24/53/5 16/54/5
f 17/55/3 23/56/3 15/57/3
f 15/58/1 22/59/1 14/60/1
f 5/1/1 2/61/1 4/2/1
f 1/4/2 3/62/2 4/5/2
f 3/7/3 8/63/3 6/8/3
f 8/10/4 3/64/4 1/11/4
f 7/13/5 1/65/5 2/14/5
f 7/29/5 13/16/5 8/18/5
f 12/19/3 21/66/3 19/20/3
f 9/22/6 5/26/6 6/23/6
f 11/25/6 7/29/6 5/26/6
f 10/24/6 6/23/6 13/27/6
f 12/28/6 13/27/6 7/29/6
f 16/30/4 24/67/4 25/31/4
f 10/33/1 19/68/1 18/34/1
f 11/36/4 20/69/4 21/37/4
f 9/35/5 18/34/5 20/39/5
f 15/41/6 14/45/6 18/42/6
f 16/44/6 20/48/6 18/42/6
f 15/41/6 19/43/6 21/46/6
f 17/47/6 21/46/6 20/48/6
f 24/49/6 22/70/6 23/50/6
f 14/52/5 22/71/5 24/53/5
f 17/55/3 25/72/3 23/56/3
f 15/58/1 23/56/1 22/59/1
